<?xml version="1.0" encoding="UTF-8"?>
<svg id="Layer_1" data-name="Layer 1" xmlns="http://www.w3.org/2000/svg" viewBox="0 0 70.97 20.48">
  <defs>
    <style>
      .cls-1 {
        fill: #fff;
        stroke: #0e232d;
        stroke-miterlimit: 10;
        stroke-width: .15px;
      }

      .cls-2 {
        fill: #fbcc0c;
      }
    </style>
  </defs>
  <g>
    <path class="cls-2" d="M1.28.06H.49v20.37s70,0,70,0V.07S1.28.06,1.28.06ZM70.19,20.1H1.28V.35h68.91v19.75Z"/>
    <path class="cls-1" d="M10.28,1.22c1.32,0,2.46.18,3.42.54.96.36,1.7.88,2.22,1.56.52.68.78,1.48.78,2.41,0,.98-.28,1.82-.84,2.53-.56.71-1.32,1.19-2.28,1.43,1.17.22,2.08.74,2.75,1.56.67.81,1,1.81,1,3,0,1.03-.28,1.92-.84,2.66-.56.75-1.34,1.32-2.35,1.72-1.01.4-2.21.6-3.6.6H2V1.22h8.28ZM10.08,8.5c.75,0,1.35-.18,1.8-.55s.67-.88.67-1.53-.22-1.13-.67-1.48c-.45-.35-1.05-.52-1.8-.5h-4.01v4.06h4.01ZM10.08,16.01c.96,0,1.71-.2,2.26-.59.55-.4.82-.95.82-1.67,0-.67-.27-1.2-.82-1.6-.55-.39-1.3-.58-2.26-.57h-4.01v4.42h4.01Z"/>
    <path class="cls-1" d="M35.66,14.23c0,1.03-.27,1.92-.83,2.66-.55.75-1.34,1.33-2.36,1.72-1.01.41-2.2.61-3.6.61h-8.56V1.22h8.28c1.33,0,2.46.19,3.42.55.96.35,1.7.88,2.23,1.55.52.68.79,1.48.79,2.4,0,.98-.28,1.83-.84,2.53-.55.72-1.31,1.2-2.27,1.43,1.17.22,2.09.74,2.76,1.56.67.81,1,1.81,1,2.99Z"/>
    <path class="cls-1" d="M38.63,1.22h13.71v4.13l-7.82-1.26-1.82,3.97,9.93.34v3.27l-9.93.38,1.82,3.9,8.1-1.07v4.35h-13.99V1.22Z"/>
    <path class="cls-1" d="M67.66,6.11c-.63-.39-1.29-.72-1.97-.99-.68-.27-1.33-.47-1.95-.62-.63-.15-1.19-.22-1.69-.22-.69,0-1.24.13-1.66.4-.42.27-.63.66-.63,1.2,0,.5.18.9.53,1.22s.81.57,1.38.77c.57.2,1.19.39,1.88.59s1.37.42,2.05.68c.68.26,1.3.59,1.88.99.57.4,1.03.92,1.36,1.54.33.63.5,1.4.5,2.33,0,1.17-.31,2.15-.93,2.96-.62.81-1.46,1.42-2.53,1.85-1.07.43-2.27.64-3.59.64-1,0-1.97-.12-2.93-.36-.96-.24-1.87-.58-2.71-1.02-.85-.44-1.62-.95-2.3-1.53l1.62-3.19c.62.55,1.3,1.03,2.05,1.44.75.41,1.5.73,2.25.95.75.22,1.45.33,2.08.33.84,0,1.5-.16,1.97-.49.47-.33.71-.79.71-1.39,0-.51-.17-.93-.51-1.23-.34-.31-.8-.57-1.36-.78s-1.19-.41-1.88-.59-1.37-.39-2.06-.64c-.69-.25-1.31-.57-1.88-.95-.57-.39-1.02-.88-1.38-1.48-.35-.6-.53-1.36-.53-2.29,0-1.1.29-2.04.87-2.84s1.4-1.41,2.44-1.85c1.05-.44,2.26-.66,3.65-.66,1.27,0,2.5.18,3.7.55s2.25.84,3.14,1.43l-1.57,3.24Z"/>
    <polygon class="cls-2" points="26.16 11.75 22.44 11.75 27.22 3.25 26.63 8.7 30.34 8.7 25.57 17.2 26.16 11.75"/>
    <polygon class="cls-2" points="44.51 4.09 44.51 15.95 38.62 14.84 38.62 5.37 44.51 4.09"/>
  </g>
  <polygon class="cls-2" points="38.2 15.95 38.2 15.96 38.2 15.96 38.2 15.95"/>
</svg>